<svg width="80" height="80" viewBox="0 0 80 80" fill="none" xmlns="http://www.w3.org/2000/svg">
<path d="M74.608 20.0447L39.8896 0L28.5752 6.575V20.325L16.7063 13.4725L5.39209 20.0475V59.952L16.6632 66.5297L28.6916 59.5842V73.4267L40.0002 80L64.0563 66.0664L62.8802 64.0356L41.2821 76.5456V40.7759L72.2613 22.7728V31.7947L49.1757 45.2647L49.2263 63.0619L72.2613 49.5933V58.6017L65.2271 62.6759L66.4032 64.7067L74.608 59.9544V46.8706L62.8346 40.0661L74.608 33.1363V20.0447ZM71.0997 47.5539L51.5263 58.978V46.6103L60.453 41.4005L71.0997 47.5539ZM16.7102 16.1845L40.0451 29.657L55.4244 20.7192L45.2804 14.8627L44.1069 16.895L50.7424 20.7258L40.0412 26.9448L30.9221 21.6798V9.28281L41.7602 15.54L42.9337 13.5077L32.0899 7.24719L39.8935 2.71203L71.1037 20.7312L40.1068 38.7448L8.89647 20.7255L16.7102 16.1845ZM30.9663 45.2616L15.5737 36.3308V49.385L17.909 49.3917V40.3889L28.6916 46.6144V56.8683L17.909 63.13V51.7386L15.5737 51.7319V63.1323L7.73881 58.6045V22.767L38.9351 40.7783V76.6752L30.9662 72.0742V45.2616H30.9663Z" fill="white"/>
</svg>
